<svg width="53" height="43" viewBox="0 0 53 43" fill="none" xmlns="http://www.w3.org/2000/svg">
<circle cx="20.2592" cy="22.2168" r="20" fill="#306DE4"/>
<mask id="mask0_5832_4423" style="mask-type:alpha" maskUnits="userSpaceOnUse" x="0" y="-12" width="41" height="55">
<path d="M40.2592 22.2167C40.2592 33.2624 31.3049 42.2167 20.2592 42.2167C9.21356 42.2167 0.259277 33.2624 0.259277 22.2167C0.259277 11.171 9.21356 2.21677 20.2592 2.21677C31.3049 2.21677 40.2592 11.171 40.2592 22.2167Z" fill="#306DE4"/>
<path d="M0.259277 22.2167C0.259277 11.171 9.21356 2.21677 20.2592 2.21677C31.3049 2.21677 40.2592 11.171 40.2592 22.2167V-11.5332H0.259277V22.2167Z" fill="#306DE4"/>
</mask>
<g mask="url(#mask0_5832_4423)">
<path d="M33.0866 44.7687C34.3759 42.7671 28.1855 29.8772 28.632 19.311C29.958 15.2277 27.2841 9.76447 25.1295 10.025C23.1406 6.20232 9.63282 6.11586 11.3951 20.9611C12.5127 30.3759 5.18137 47.2952 8.35514 47.2952C15.9156 44.4663 33.1395 49.5944 33.0866 44.7687Z" fill="url(#paint0_linear_5832_4423)"/>
<path opacity="0.55" d="M26.8367 20.8744C26.5293 27.4549 28.5258 35.4012 28.5258 35.4012L19.0668 35.6622L13.6834 36.0009C11.1381 32.3133 13.9387 19.6396 13.9387 19.6396C13.9387 19.6396 23.6969 17.5046 26.8367 20.8744Z" fill="url(#paint1_linear_5832_4423)"/>
<path d="M16.1099 28.0579C15.9198 34.034 15.7745 32.9986 12.7114 34.7638C11.3734 35.7361 18.5791 42.5425 21.2711 42.8029C23.9631 43.0633 24.0761 36.5902 25.8329 32.2126C24.3596 31.4236 23.4227 30.8932 23.5299 28.064C23.5271 28.058 18.8414 28.8696 16.1099 28.0579Z" fill="url(#paint2_linear_5832_4423)"/>
<path d="M23.5904 27.7507C23.5287 29.6266 23.6578 28.9672 23.7276 30.2276C21.909 32.8038 19.2032 35.609 16.5146 36.021C13.826 36.4331 16.5389 37.123 14.5308 32.8108C15.9653 31.9311 16.1987 30.5199 16.1005 27.9259C15.7073 26.9869 20.8996 28.7208 23.5904 27.7507Z" fill="url(#paint3_linear_5832_4423)"/>
<path d="M14.6036 24.6701C14.6036 24.6701 14.4358 25.0217 13.9736 25.0547C13.042 25.122 12.0943 21.3596 12.9484 20.3327C13.8025 19.3058 14.39 21.1099 14.39 21.1099L14.6036 24.6701Z" fill="url(#paint4_linear_5832_4423)"/>
<path d="M13.5745 22.3771C13.5043 22.7899 13.5043 23.2175 13.5745 23.6302C13.6171 23.8687 13.7063 24.1326 13.8794 24.1817C13.9414 24.1932 14.0046 24.1788 14.0599 24.1405C14.1172 24.1005 14.1642 24.0395 14.195 23.9652C14.2593 23.8121 14.283 23.6359 14.2627 23.4637C14.2094 22.9641 14.0578 22.4907 13.8226 22.0891C13.5963 21.7036 13.2922 21.4068 12.9438 21.2317C13.2021 21.5632 13.4157 21.9484 13.5759 22.3713L13.5745 22.3771Z" fill="url(#paint5_linear_5832_4423)"/>
<path d="M25.7144 23.5239C25.7144 23.5239 25.9102 24.6743 26.4494 24.7061C27.5341 24.7712 28.6443 21.1384 27.6436 20.147C26.6428 19.1555 25.9642 20.8974 25.9642 20.8974L25.7144 23.5239Z" fill="url(#paint6_linear_5832_4423)"/>
<path d="M26.9876 22.3083C27.0659 22.6955 27.0659 23.1008 26.9876 23.488C26.9404 23.7125 26.8395 23.961 26.6475 24.0063C26.5783 24.0181 26.5079 24.0054 26.4442 23.9698C26.3816 23.9344 26.3288 23.877 26.2921 23.8047C26.2204 23.6643 26.1932 23.4958 26.2158 23.3318C26.2797 22.8513 26.4512 22.4028 26.7106 22.0377C26.9769 21.6645 27.3183 21.386 27.6997 21.2305C27.4145 21.5347 27.1736 21.8976 26.9876 22.3034V22.3083Z" fill="url(#paint7_linear_5832_4423)"/>
<path d="M20.2037 9.41968C26.0978 9.41968 26.5405 15.7376 26.5405 15.7376C26.5405 15.7376 27.1904 21.0492 26.5405 23.9722C25.7315 27.6103 22.5321 30.618 20.2037 30.618C17.2373 30.618 14.1363 27.8798 13.4622 21.8162C12.6529 20.2257 13.4623 15.7376 13.4623 15.7376C13.4623 15.7376 14.3097 9.41968 20.2037 9.41968Z" fill="url(#paint8_linear_5832_4423)"/>
<path d="M19.5922 22.2296C19.2056 23.3377 19.2332 24.2957 18.9364 23.9543C19.0385 24.1051 19.1772 24.4894 19.5922 24.71V26.4677C19.0713 26.8252 17.3893 27.0371 14.8286 25.0203C12.2678 23.0036 13.7613 20.4174 14.8286 19.3737C15.7421 19.1231 15.2164 18.5975 18.1653 19.1821C19.7563 19.6134 19.9137 21.307 19.5922 22.2296Z" fill="url(#paint9_linear_5832_4423)"/>
<path d="M21.1188 21.2033C20.928 20.2576 21.4484 19.4755 22.0036 18.9117C22.0903 18.5541 22.7599 17.9915 24.7445 18.6026C27.2252 19.3664 25.6986 20.7668 24.9874 20.8577C24.3976 19.9302 22.6281 19.9302 22.2638 20.5849C21.8995 21.2397 21.2229 21.6398 21.1188 21.2033Z" fill="url(#paint10_linear_5832_4423)"/>
<path d="M22.3698 18.528C22.3698 18.528 23.3759 18.1279 25.024 18.7281C26.7179 19.5924 24.1392 18.9827 23.3309 19.0959C22.7672 19.1348 21.9962 19.3916 21.7598 19.1823C21.5234 18.973 22.0047 18.6342 22.3698 18.528Z" fill="#270E0A"/>
<path d="M18.0658 18.528C18.0658 18.528 17.0596 18.1279 15.4116 18.7281C13.7176 19.5924 16.2963 18.9827 17.1047 19.0959C17.6683 19.1348 18.4393 19.3916 18.6757 19.1823C18.9121 18.973 18.4308 18.6342 18.0658 18.528Z" fill="#270E0A"/>
<path d="M11.8364 17.8872C11.86 15.4123 12.4068 8.40489 19.9799 8.29241C27.553 8.17993 28.4816 16.3424 28.5528 18.0147C27.526 18.1151 27.3654 18.0147 27.3654 18.0147C27.1668 15.2155 26.2824 10.0731 19.9789 9.32796C15.5147 9.49076 13.0052 12.566 12.8647 18.1339C12.4592 18.2256 11.8364 17.8872 11.8364 17.8872Z" fill="url(#paint11_linear_5832_4423)"/>
<path d="M24.1248 14.8892C22.4443 11.0815 20.2433 12.4485 18.2509 12.777C16.9849 12.9857 14.9673 15.6302 13.7984 16.5073C10.3624 14.5986 15.144 10.1474 19.1263 9.36171C24.6971 8.26037 29.4122 13.0067 28.0302 20.9263C26.9651 20.0384 27.2923 22.201 26.9651 22.4364C26.0404 23.102 27.0706 20.0414 26.309 19.1815C25.5303 18.1917 26.2748 15.1881 24.1248 14.8892Z" fill="url(#paint12_linear_5832_4423)"/>
<path d="M20.0277 15.123C22.2679 14.2822 23.8513 14.8854 24.1176 14.8854L24.5615 13.8092L22.5613 13.021C20.8278 14.0283 17.7875 15.9638 20.0277 15.123Z" fill="#132048"/>
<path d="M24.1206 14.9438C22.6931 11.5437 18.2631 17.268 16.1356 18.1734C12.7523 19.2971 14.2548 22.8835 13.4081 22.3995C13.1541 22.1092 13.4081 19.9746 11.8645 19.0278C11.5935 18.8618 11.3981 18.2844 11.4345 17.5042C11.4345 14.0767 13.8729 9.69151 17.4764 8.7473C21.5404 7.68258 23.7641 9.42856 24.1206 9.77556C25.9303 11.5396 24.1206 14.9438 24.1206 14.9438Z" fill="url(#paint13_linear_5832_4423)"/>
<path d="M19.6888 21.873C19.6888 22.8863 19.2467 23.4587 19.1213 24.3295C19.2121 24.5849 19.4333 24.8723 19.6413 25.0571C19.3637 24.8509 19.0214 24.7713 18.9214 24.3057C18.8468 23.9584 19.5091 22.9569 19.6888 21.873Z" fill="#EEA19A"/>
<path d="M19.7815 25.1388C19.4598 25.1388 18.8984 24.5583 18.8984 24.3266C18.963 24.157 20.0555 23.8563 20.5671 24.2181C20.9661 24.5 20.4177 25.0843 19.7815 25.1388Z" fill="#EEA19A"/>
<path d="M15.5468 21.2693C14.7783 21.0721 15.15 21.0571 15.2468 20.8865C15.4189 20.6463 15.6448 20.4543 15.9045 20.3275C16.1805 20.1921 16.4812 20.1207 16.7859 20.1184C17.4577 20.1184 18.1304 20.8896 18.2258 21.1449C18.0415 21.1186 17.7132 21.3086 17.2802 21.3724C16.7049 21.4572 16.2148 21.4612 15.5468 21.2693Z" fill="white"/>
<path d="M16.1507 21.122C16.212 21.2376 16.3026 21.3331 16.4124 21.3981C16.6368 21.3981 16.8791 21.3909 17.1046 21.3728C17.1829 21.3191 17.2498 21.249 17.3012 21.1671C17.3539 21.0833 17.3902 20.9895 17.4081 20.891C17.4266 20.7919 17.4266 20.6901 17.4081 20.591C17.3894 20.4922 17.3036 20.344 17.251 20.2613C17.1085 20.152 16.9904 20.1442 16.8173 20.1358C16.5972 20.135 16.2787 20.1494 16.1865 20.3016C16.1062 20.4206 16.0602 20.5614 16.054 20.7071C16.0474 20.8534 16.0816 20.9984 16.1525 21.1245L16.1507 21.122Z" fill="#270E0A"/>
<path d="M14.9659 20.9474C14.7341 20.9875 14.2483 20.7982 14.0344 20.6986C13.8617 20.8637 13.6386 21.214 14.1271 21.2936C14.7378 21.3932 15.2557 20.8971 14.9659 20.9474Z" fill="url(#paint14_linear_5832_4423)"/>
<path d="M25.1395 21.1177C25.3308 21.1448 25.7314 20.9293 25.9078 20.8182C26.0505 20.9731 26.235 21.3095 25.832 21.4159C25.3283 21.549 24.9004 21.0838 25.1395 21.1177Z" fill="url(#paint15_linear_5832_4423)"/>
<path d="M18.2303 21.0053C18.2303 21.0053 17.8621 20.1791 16.9057 20.1259C15.4451 20.038 15.2686 20.7501 15.0778 20.8956C15.0222 20.938 14.991 20.9866 14.9043 20.9866C14.991 21.086 15.1366 21.18 15.2166 21.1139C15.2886 21.0543 15.4177 20.3481 16.4788 20.2065C17.5399 20.065 18.2279 21.0058 18.2279 21.0058" fill="#270E0A"/>
<path d="M15.6218 20.092C16.2302 19.7259 17.0718 19.7637 17.6417 20.2439C17.7525 20.3384 17.8477 20.4513 17.9236 20.5781C17.8249 20.478 17.7153 20.3903 17.5972 20.3168C17.0143 19.9623 16.2911 19.9216 15.6912 20.2011C15.4419 20.3131 15.1053 20.7482 15.0667 20.7103C15.028 20.6724 15.3422 20.2683 15.6218 20.092Z" fill="#CF806B"/>
<path d="M25.1347 20.6714C25.0971 20.7105 24.6929 20.2755 24.4403 20.1717C23.8322 19.9125 23.1207 19.9761 22.5494 20.3498C22.4336 20.4272 22.3267 20.5185 22.231 20.6219C22.3031 20.4926 22.3949 20.3766 22.5027 20.2784C23.0577 19.7794 23.895 19.7017 24.514 20.0472C24.7983 20.2146 25.1722 20.6323 25.1347 20.6714Z" fill="#CF806B"/>
<path d="M24.6091 21.3524C25.3786 21.2667 25.008 21.0667 24.9122 20.8941C24.7402 20.6522 24.514 20.4586 24.2537 20.3304C23.9784 20.1935 23.678 20.1212 23.3734 20.1184C22.7007 20.1184 22.026 20.8896 21.9282 21.1469C22.1067 21.0853 22.4332 21.2183 22.6435 21.2613C23.5087 21.4389 24.0913 21.3561 24.6091 21.3524Z" fill="white"/>
<path d="M22.9 21.0855C22.9508 21.1915 23.0265 21.2821 23.12 21.3489C23.3378 21.3734 23.557 21.3824 23.776 21.3761C23.8581 21.3265 23.929 21.2587 23.9837 21.1774C24.0401 21.0937 24.0797 20.9987 24.1001 20.8984C24.1194 20.7967 24.1194 20.692 24.1001 20.5902C24.0817 20.4898 24.0438 20.3944 23.9887 20.3101C23.8944 20.1658 23.6009 20.1467 23.3919 20.1467C23.228 20.155 23.0955 20.1701 22.9605 20.2766C22.8913 20.3861 22.8252 20.5616 22.8198 20.6965C22.8131 20.8311 22.841 20.9651 22.9006 21.0846L22.9 21.0855Z" fill="#270E0A"/>
<path d="M21.9282 21.1037C21.9282 21.1037 22.2929 20.1882 23.2484 20.1264C24.6973 20.0327 24.888 20.7872 25.0835 20.9203C25.1614 20.9847 25.2202 21.1018 25.3193 21.1013C25.1577 21.2532 25.1448 21.2528 24.9897 21.265C24.8346 21.2772 24.7236 20.3773 23.6722 20.2224C22.6208 20.0674 21.9321 21.1099 21.9321 21.1099" fill="#270E0A"/>
<path d="M18.1529 26.4668C18.1396 26.3904 18.1268 26.3523 18.4929 26.3662C18.859 26.3801 19.7705 26.6058 20.8556 26.4251C21.9406 26.2445 21.9739 26.1473 22.0671 26.182C22.1603 26.2168 22.161 26.2712 21.9806 26.5502C21.7609 26.8072 20.8622 27.7867 19.9236 27.5505C18.985 27.3143 18.2394 26.6961 18.1529 26.4668Z" fill="#71312F"/>
<path d="M18.1601 26.4015C18.4848 26.7075 18.8204 27.2444 20.3183 27.1401C21.2727 27.0358 22.0447 26.3536 22.1176 26.2075C22.2767 26.2701 21.5046 27.6857 20.3183 27.7483C19.0391 27.8248 18.0408 26.5406 18.1601 26.4015Z" fill="#E03B65"/>
<path d="M18.3594 26.3563C18.7703 26.391 19.2674 26.4606 20.1091 26.4189C20.9509 26.3771 21.9517 26.1685 21.9517 26.1685C21.8721 26.558 21.2027 26.9544 20.0959 26.9683C18.989 26.9823 18.4455 26.6693 18.3594 26.3563Z" fill="white"/>
<path d="M18.2915 26.3589C19.1485 26.3589 19.2348 26.4309 20.1715 26.3941C21.1081 26.3572 21.8533 26.1858 21.9687 26.1858C21.5956 26.278 20.8426 26.4263 20.1137 26.4448C19.3847 26.4632 18.8766 26.4001 18.2915 26.3589Z" fill="#E03B65"/>
<path d="M22.0954 21.4287C22.2862 21.4055 22.4601 21.481 23.4652 21.5572C24.4702 21.6333 25.2061 21.2972 25.289 21.4055C25.372 21.5137 24.7999 21.9992 23.6197 21.9196C22.4395 21.84 21.9046 21.452 22.0954 21.4287Z" fill="url(#paint16_linear_5832_4423)"/>
<path d="M18.0427 25.5358C18.0205 25.6316 17.9283 25.6831 17.6634 26.1143C17.3985 26.5454 17.496 27.0063 17.3983 27.0041C17.3006 27.0019 17.0581 26.5605 17.3618 26.0506C17.6656 25.5407 18.065 25.44 18.0427 25.5358Z" fill="url(#paint17_linear_5832_4423)"/>
<path d="M22.1121 25.3415C22.128 25.4509 22.2199 25.522 22.4625 26.0397C22.7051 26.5573 22.5692 27.0522 22.6708 27.0648C22.7724 27.0773 23.0575 26.6263 22.7804 26.0155C22.5034 25.4048 22.0962 25.2321 22.1121 25.3415Z" fill="url(#paint18_linear_5832_4423)"/>
<path d="M18.0529 21.5447C17.8621 21.5214 17.6883 21.597 16.6832 21.6732C15.678 21.7493 14.9422 21.4132 14.8594 21.5214C14.7766 21.6297 15.3484 22.1152 16.5288 22.0356C17.7091 21.9559 18.2441 21.5678 18.0529 21.5447Z" fill="url(#paint19_linear_5832_4423)"/>
<path d="M26.7983 24.8424C26.7101 26.7726 26.4311 28.0125 25.4294 28.4385C24.4276 28.8645 22.5854 29.269 21.8811 29.351L21.8525 29.7524C23.7522 29.555 25.9889 28.841 26.3018 28.4465C26.6894 28.2009 27.3364 26.7489 27.288 25.0732C27.33 24.5821 26.7983 24.8424 26.7983 24.8424Z" fill="url(#paint20_linear_5832_4423)"/>
<path d="M13.2844 17.4902C12.4813 16.6498 10.0869 15.9121 10.1235 20.541C10.16 25.17 12.1161 26.5145 13.698 25.8218C14.5592 25.3454 14.247 18.4177 13.2844 17.4902Z" fill="url(#paint21_linear_5832_4423)"/>
<path d="M27.1155 17.6562C27.9185 16.8158 30.317 16.0781 30.2763 20.707C30.2356 25.336 28.2837 26.6805 26.7029 25.9878C25.8417 25.5114 26.1526 18.5838 27.1155 17.6562Z" fill="url(#paint22_linear_5832_4423)"/>
<path d="M21.1145 30.5765C21.9088 30.4679 22.4978 29.9629 22.43 29.4491C22.3622 28.9353 21.6617 28.6076 20.8672 28.7172C20.0727 28.8267 19.4839 29.3317 19.554 29.8466C19.6241 30.3615 20.3201 30.6859 21.1145 30.5765Z" fill="url(#paint23_linear_5832_4423)"/>
<path d="M16.6305 36.5352C17.9616 37.6266 20.4974 36.5225 19.9465 39.5406C21.1687 37.3501 25.9839 34.4432 24.7656 31.8384L29.6668 34.9903L28.4647 92.889L13.1612 93.3389C13.1612 93.3389 13.2167 42.1831 10.7104 36.4668C11.8685 35.989 15.052 33.1035 15.052 33.1035C15.052 33.1035 15.3004 35.4423 16.6305 36.5352Z" fill="#306DE4"/>
<path d="M19.6702 39.5053C19.0415 41.1446 18.9661 43.2344 19.2487 44.5786C19.4725 45.2284 20.8396 44.7451 20.8396 44.7451C20.9226 41.2219 20.6982 38.7302 22.1489 37.1367C20.7042 38.03 20.0546 38.1402 19.6702 39.5053Z" fill="url(#paint24_linear_5832_4423)"/>
<path d="M24.3113 31.4087C24.3113 31.4087 25.0351 32.6384 24.558 33.6889C23.686 35.1618 20.3467 38.2964 20.3467 38.2964C21.8147 37.6023 21.8044 40.9184 23.8921 41.0275C24.6716 39.7178 28.1319 33.9347 27.2968 33.2116C26.6565 32.7069 25.7882 32.2652 25.2887 31.7659C25.0387 31.5161 24.3113 31.4087 24.3113 31.4087Z" fill="url(#paint25_linear_5832_4423)"/>
<path d="M19.9425 38.1253C20.1343 37.3885 15.6672 35.3583 15.9167 32.1758C14.96 32.0326 14.5955 32.672 14.0329 34.2281C13.4703 35.7842 15.6214 39.3769 16.2194 41.2123C18.8198 40.8932 18.2841 38.0768 19.9425 38.1253Z" fill="url(#paint26_linear_5832_4423)"/>
<path d="M36.6915 38.2586C34.7065 37.2667 31.8982 39.0919 32.0754 47.2939C32.2526 55.496 35.6788 63.446 37.1749 64.8245C39.3663 66.4086 40.9665 65.331 42.6771 63.0815C44.3878 60.8319 40.3685 52.7132 40.3685 52.7132C40.0699 47.111 37.9708 39.1048 36.6915 38.2586Z" fill="url(#paint27_linear_5832_4423)"/>
<path d="M36.1587 36.6193C33.1695 35.0864 31.9089 39.0627 32.0867 47.2648C32.2645 55.4668 33.672 62.1225 35.168 63.5014C38.8747 58.9191 45.6798 56.8584 45.6798 56.8584C41.2663 49.4988 40.5591 38.7075 36.1587 36.6193Z" fill="url(#paint28_linear_5832_4423)"/>
<path d="M59.177 38.9142C59.6944 39.5396 58.3082 40.2323 56.0182 41.9515C55.6133 42.3872 55.4716 42.7114 54.5009 43.3214C54.5009 43.3214 53.1048 43.8062 52.0223 45.2893C51.5782 45.8978 50.9562 47.0085 50.3596 48.143C50.0246 48.7803 49.6975 49.4251 49.4145 49.9928L49.4059 50.0102C49.3989 50.0238 49.3922 50.0378 49.3853 50.0515L49.3647 50.0927C49.3349 50.1525 49.3053 50.2119 49.276 50.2709C49.2176 50.3877 49.1596 50.5048 49.1021 50.6224C49.0424 50.7441 48.9827 50.866 48.9231 50.9882C48.8932 51.048 48.864 51.1081 48.8354 51.1686C48.8055 51.2305 48.7757 51.2926 48.7459 51.3547C48.7414 51.3638 48.7369 51.3729 48.7326 51.382C48.7232 51.4013 48.714 51.4204 48.7047 51.4396L48.7038 51.4416C48.699 51.4517 48.6943 51.4616 48.6889 51.4715C48.6835 51.4813 48.6801 51.4895 48.6758 51.4985C48.6753 51.4996 48.6748 51.5006 48.6743 51.5016C48.672 51.5065 48.6697 51.5113 48.6673 51.5166L48.6604 51.5315L48.6395 51.5748L48.6167 51.6221L48.6009 51.655C48.5978 51.6614 48.5946 51.6678 48.5916 51.6742C48.5851 51.688 48.579 51.7008 48.5731 51.7128L48.5615 51.737C48.5581 51.744 48.5547 51.751 48.5514 51.758C48.5503 51.7601 48.5493 51.7622 48.5484 51.7643C44.846 59.4858 41.6556 67.7966 37.5406 65.0307C36.9874 63.2417 36.6516 61.3924 36.5405 59.523C36.5739 55.8871 40.5563 52.0032 43.2526 48.4594C44.5981 46.691 45.6646 45.2897 46.3952 44.3296L46.5072 44.1824L46.5269 44.1565L46.7667 43.8412L46.8397 43.7454L47.0999 43.4033L47.1148 43.3832L47.136 43.3554L47.1556 43.3297L47.1633 43.3194L47.1855 43.2903L47.4066 43.0029L47.4743 42.9252L47.495 42.9016L47.5262 42.8659C47.6676 42.7038 47.734 42.6179 47.7492 42.4742C47.7641 42.3222 47.7086 42.2816 47.6479 42.0102C47.6113 41.7932 47.5953 41.5731 47.6004 41.3531C47.6004 40.7288 47.9136 38.6802 48.979 37.0747C49.0226 37.0097 49.0685 36.9439 49.1613 36.801C49.7554 35.8889 49.9731 35.4066 50.0186 35.2535C50.0764 35.0721 50.2274 34.9032 50.4297 34.8628C50.632 34.8223 50.7626 34.9262 50.7929 34.9444C51.1522 35.2241 51.2823 35.7094 51.2681 35.9366C51.2429 36.356 51.129 36.8155 50.7435 37.3621C50.6423 37.5649 50.457 37.7576 50.3972 37.869C50.7731 37.5852 51.0415 37.3396 51.3719 37.0029C52.6533 35.6976 53.924 33.4824 54.8807 32.9027C55.0193 32.8208 55.3191 32.6228 55.7458 32.8318C55.8189 32.8621 55.8825 32.9115 55.93 32.9747C56.1396 33.2838 55.8298 33.783 55.6447 34.0691C55.6447 34.0691 53.3981 37.3021 53.3442 37.4446C53.2904 37.587 53.3523 37.6344 53.4055 37.6524C53.446 37.612 53.5067 37.5512 53.5897 37.4661C55.0534 35.9775 55.5464 35.1637 56.7459 34.3013C57.263 33.9293 57.8746 33.5372 58.2131 33.9292C58.5517 34.3212 58.176 34.8357 58.0121 34.9937C56.8834 36.079 54.8292 38.4431 54.6835 38.6223C54.5822 38.7398 54.5628 38.7998 54.5994 38.8418C54.6359 38.8838 54.7432 38.8034 54.7887 38.7649C57.2393 36.5537 59.014 35.1662 59.39 36.1025C59.766 37.0387 57.9879 37.7898 55.4852 40.1921C55.4447 40.2307 55.3698 40.3203 55.4054 40.3636C55.4411 40.4069 55.5634 40.3746 55.6111 40.3429C56.1466 40.0504 58.6594 38.289 59.177 38.9142Z" fill="url(#paint29_linear_5832_4423)"/>
<path d="M6.27846 37.6631C2.81191 37.99 -0.251472 41.7658 -1.81255 46.6916C-3.14288 52.4874 -3.54053 54.4124 -3.54053 60.3604C-2.10862 60.3604 7.40758 60.1726 7.40758 60.1726C8.69077 54.1425 8.69092 38.9895 6.27846 37.6631Z" fill="url(#paint30_linear_5832_4423)"/>
<path d="M18.4302 93.1865C16.0183 74.5345 17.4025 40.2811 14.3619 34.5671C14.1071 34.115 14.2277 33.8304 14.2654 33.6141C13.9878 33.4185 13.2493 34.434 12.5825 34.7377C10.0689 35.8826 6.04507 37.6906 6.04507 37.6906C4.94221 45.7941 4.81035 52.7799 7.81153 66.2758C6.27089 78.1091 4.70758 91.7192 5.41145 93.5598C8.34701 93.4586 31.9936 92.8414 38.231 92.5313C38.3651 88.2596 34.2988 72.8635 34.1589 65.5704C33.7878 60.7145 35.4715 54.4035 35.5835 52.1413C35.6955 49.879 34.1589 42.0918 35.9273 36.683C35.9273 36.683 32.7665 35.5698 31.1167 34.8726C30.4071 34.7552 27.4256 32.1549 26.281 32.5122C26.491 32.629 26.7406 33.141 26.5522 33.4856C25.1969 36.3595 19.2972 57.7188 20.1863 93.136L18.4302 93.1865Z" fill="url(#paint31_linear_5832_4423)"/>
<path d="M26.7313 41.8416L29.6679 49.4583C29.6679 49.4583 23.8842 58.9316 20.8584 67.331C22.3512 47.472 25.5904 35.6574 26.5502 33.5307C26.7386 33.1708 26.4891 32.6357 26.2791 32.5137C27.2618 32.1934 29.599 34.151 30.689 34.7885L34.4764 39.4704C31.46 39.6601 29.0059 40.38 26.7313 41.8416Z" fill="url(#paint32_linear_5832_4423)"/>
<path d="M8.66613 48.5032L13.4232 42.1648C13.4232 42.1648 8.71759 40.8258 5.48193 41.2723C5.66957 39.6103 7.77805 37.5274 9.82776 35.7146C10.6965 35.4339 11.5282 35.1585 12.2623 34.8246C12.9783 34.4982 13.7718 33.4073 14.0702 33.6175C14.0295 33.85 13.9002 34.1551 14.1746 34.6414C16.2239 38.4929 16.4021 54.4149 16.8903 70.6942C15.1346 59.5138 8.66613 48.5032 8.66613 48.5032Z" fill="url(#paint33_linear_5832_4423)"/>
<path d="M26.4552 41.4402L28.8912 48.4675C28.8912 48.4675 23.1934 56.9912 20.8584 65.8339C22.2811 46.828 25.368 35.5212 26.2826 33.4856C26.4616 33.1411 26.2245 32.6289 26.0243 32.5122C26.9608 32.2056 29.1881 34.0792 30.2269 34.6893L33.8365 38.7545C30.9617 38.9368 28.6229 40.0414 26.4552 41.4402Z" fill="url(#paint34_linear_5832_4423)"/>
<path d="M9.2365 47.4708L13.6647 41.5714C13.6647 41.5714 9.28438 40.3249 6.27246 40.7405C6.44712 39.1932 8.40988 37.2548 10.3179 35.5676C11.1265 35.3063 11.9013 35.0501 12.584 34.7392C13.2509 34.4355 13.9892 33.4199 14.267 33.6157C14.2291 33.832 14.1087 34.1165 14.3635 34.5687C16.2712 38.1536 16.4367 52.9734 16.8915 68.1258C15.258 57.7194 9.2365 47.4708 9.2365 47.4708Z" fill="url(#paint35_linear_5832_4423)"/>
<path d="M-8.33691 47.4298L6.64409 70.7522L28.2735 65.1377L13.2925 41.8157L-8.33691 47.4298Z" fill="url(#paint36_linear_5832_4423)"/>
<path d="M7.90332 43.2274L13.3147 41.8157L28.2752 65.2386C23.0641 59.2406 13.2667 42.2616 13.2667 42.2616C11.5575 42.6924 7.90332 43.2274 7.90332 43.2274Z" fill="url(#paint37_linear_5832_4423)"/>
<path d="M8.10787 44.4022L-1.99004 47.0532C-2.60546 46.6854 -2.88379 44.7418 -1.93948 44.3516C-0.536509 44.0202 0.917024 43.6027 0.917024 43.6027C0.792627 43.012 1.17417 42.3866 1.99617 42.1719C2.81817 41.9572 3.43956 42.3511 3.56605 42.8427L6.32037 42.1091C6.96205 41.9499 8.53714 43.014 8.10787 44.4022Z" fill="url(#paint38_linear_5832_4423)"/>
</g>
<path d="M34.6105 10.8918V11.7251H35.4438H46.5549C49.4698 11.7251 51.8327 9.36219 51.8327 6.44736C51.8327 3.53253 49.4698 1.1696 46.5549 1.1696H39.8883C36.9735 1.1696 34.6105 3.53254 34.6105 6.44736V10.8918Z" fill="#306DE4"/>
<circle cx="39.8885" cy="6.44729" r="1.11111" fill="#F0FBFF"/>
<circle cx="43.2215" cy="6.44729" r="1.11111" fill="#F0FBFF"/>
<circle cx="46.555" cy="6.44729" r="1.11111" fill="#F0FBFF"/>
<path d="M34.6105 10.8918V11.7251H35.4438H46.5549C49.4698 11.7251 51.8327 9.36219 51.8327 6.44736C51.8327 3.53253 49.4698 1.1696 46.5549 1.1696H39.8883C36.9735 1.1696 34.6105 3.53254 34.6105 6.44736V10.8918Z" stroke="#F0FBFF" stroke-width="1.66666"/>
<defs>
<linearGradient id="paint0_linear_5832_4423" x1="33.3102" y1="39.9894" x2="14.6516" y2="1.8836" gradientUnits="userSpaceOnUse">
<stop stop-color="#0C1C43"/>
<stop offset="1" stop-color="#1F3266"/>
</linearGradient>
<linearGradient id="paint1_linear_5832_4423" x1="20.5837" y1="18.9837" x2="21.326" y2="43.9996" gradientUnits="userSpaceOnUse">
<stop stop-color="#09110B"/>
<stop offset="1" stop-color="#391A17" stop-opacity="0"/>
</linearGradient>
<linearGradient id="paint2_linear_5832_4423" x1="12.9858" y1="33.888" x2="24.007" y2="35.5281" gradientUnits="userSpaceOnUse">
<stop offset="0.2" stop-color="#FDCDC6"/>
<stop offset="0.73" stop-color="#FFE1D0"/>
</linearGradient>
<linearGradient id="paint3_linear_5832_4423" x1="19.0167" y1="32.733" x2="18.014" y2="28.451" gradientUnits="userSpaceOnUse">
<stop offset="0.14" stop-color="#F5C8AE" stop-opacity="0"/>
<stop offset="0.68" stop-color="#F8B1A5"/>
<stop offset="1" stop-color="#F8B1A5"/>
</linearGradient>
<linearGradient id="paint4_linear_5832_4423" x1="12.6147" y1="22.5361" x2="14.6036" y2="22.5361" gradientUnits="userSpaceOnUse">
<stop offset="0.2" stop-color="#FDCDC6"/>
<stop offset="0.735" stop-color="#FFE1D0"/>
</linearGradient>
<linearGradient id="paint5_linear_5832_4423" x1="13.5091" y1="23.5412" x2="15.2707" y2="21.8167" gradientUnits="userSpaceOnUse">
<stop stop-color="#FFD7C6" stop-opacity="0"/>
<stop offset="0.82" stop-color="#E98F77" stop-opacity="0.44"/>
</linearGradient>
<linearGradient id="paint6_linear_5832_4423" x1="25.7144" y1="22.2744" x2="28.0347" y2="22.2744" gradientUnits="userSpaceOnUse">
<stop offset="0.2" stop-color="#FDCDC6"/>
<stop offset="0.735" stop-color="#FFE1D0"/>
</linearGradient>
<linearGradient id="paint7_linear_5832_4423" x1="26.8439" y1="23.4041" x2="28.482" y2="21.4874" gradientUnits="userSpaceOnUse">
<stop stop-color="#FFD7C6" stop-opacity="0"/>
<stop offset="0.82" stop-color="#E98F77" stop-opacity="0.44"/>
</linearGradient>
<linearGradient id="paint8_linear_5832_4423" x1="12.7892" y1="20.0188" x2="27.6214" y2="20.0188" gradientUnits="userSpaceOnUse">
<stop offset="0.2" stop-color="#FDCDC6"/>
<stop offset="0.735" stop-color="#FFE1D0"/>
</linearGradient>
<linearGradient id="paint9_linear_5832_4423" x1="16.1066" y1="25.0022" x2="20.0847" y2="17.9644" gradientUnits="userSpaceOnUse">
<stop stop-color="#FFD7C6" stop-opacity="0"/>
<stop offset="0.82" stop-color="#E98F77" stop-opacity="0.44"/>
</linearGradient>
<linearGradient id="paint10_linear_5832_4423" x1="22.7322" y1="20.3121" x2="22.4728" y2="18.4635" gradientUnits="userSpaceOnUse">
<stop stop-color="#FFD7C6" stop-opacity="0"/>
<stop offset="0.82" stop-color="#E98F77" stop-opacity="0.44"/>
</linearGradient>
<linearGradient id="paint11_linear_5832_4423" x1="17.9203" y1="9.37828" x2="21.5918" y2="19.7039" gradientUnits="userSpaceOnUse">
<stop stop-color="#F1F7FC"/>
<stop offset="0.98" stop-color="#CFE1F6"/>
</linearGradient>
<linearGradient id="paint12_linear_5832_4423" x1="28.2942" y1="13.9598" x2="12.6059" y2="13.9598" gradientUnits="userSpaceOnUse">
<stop stop-color="#101C42"/>
<stop offset="1" stop-color="#213366"/>
</linearGradient>
<linearGradient id="paint13_linear_5832_4423" x1="16.8624" y1="40.2656" x2="17.8437" y2="8.19606" gradientUnits="userSpaceOnUse">
<stop stop-color="#101C42"/>
<stop offset="1" stop-color="#213366"/>
</linearGradient>
<linearGradient id="paint14_linear_5832_4423" x1="13.4468" y1="21.4918" x2="14.8072" y2="20.6808" gradientUnits="userSpaceOnUse">
<stop stop-color="#F8D7C7" stop-opacity="0"/>
<stop offset="1" stop-color="#ECB3A7" stop-opacity="0.96"/>
</linearGradient>
<linearGradient id="paint15_linear_5832_4423" x1="26.0376" y1="21.3173" x2="25.228" y2="20.9319" gradientUnits="userSpaceOnUse">
<stop stop-color="#F8D7C7" stop-opacity="0"/>
<stop offset="1" stop-color="#ECB3A7" stop-opacity="0.96"/>
</linearGradient>
<linearGradient id="paint16_linear_5832_4423" x1="25.359" y1="22.7114" x2="22.4582" y2="23.46" gradientUnits="userSpaceOnUse">
<stop stop-color="#F8D7C7" stop-opacity="0"/>
<stop offset="1" stop-color="#ECB3A7" stop-opacity="0.66"/>
</linearGradient>
<linearGradient id="paint17_linear_5832_4423" x1="17.2138" y1="28.6542" x2="16.0574" y2="26.6116" gradientUnits="userSpaceOnUse">
<stop stop-color="#F8D7C7" stop-opacity="0"/>
<stop offset="1" stop-color="#ECB3A7" stop-opacity="0.49"/>
</linearGradient>
<linearGradient id="paint18_linear_5832_4423" x1="22.7384" y1="28.9186" x2="24.2639" y2="26.9704" gradientUnits="userSpaceOnUse">
<stop stop-color="#F8D7C7" stop-opacity="0"/>
<stop offset="1" stop-color="#ECB3A7" stop-opacity="0.49"/>
</linearGradient>
<linearGradient id="paint19_linear_5832_4423" x1="14.4263" y1="22.2162" x2="15.2791" y2="20.4043" gradientUnits="userSpaceOnUse">
<stop stop-color="#F8D7C7" stop-opacity="0"/>
<stop offset="1" stop-color="#ECB3A7" stop-opacity="0.66"/>
</linearGradient>
<linearGradient id="paint20_linear_5832_4423" x1="24.4855" y1="28.4228" x2="24.9182" y2="24.4456" gradientUnits="userSpaceOnUse">
<stop offset="0.01" stop-color="#79B2E7"/>
<stop offset="0.92" stop-color="#BADEFF"/>
</linearGradient>
<linearGradient id="paint21_linear_5832_4423" x1="10.2135" y1="19.7519" x2="15.3655" y2="23.5704" gradientUnits="userSpaceOnUse">
<stop stop-color="#F1F8FE"/>
<stop offset="0.98" stop-color="#CBE3F9"/>
</linearGradient>
<linearGradient id="paint22_linear_5832_4423" x1="26.2892" y1="19.9179" x2="31.441" y2="23.7356" gradientUnits="userSpaceOnUse">
<stop stop-color="#F1F8FE"/>
<stop offset="0.98" stop-color="#CBE3F9"/>
</linearGradient>
<linearGradient id="paint23_linear_5832_4423" x1="20.0092" y1="29.5082" x2="22.9163" y2="29.9042" gradientUnits="userSpaceOnUse">
<stop stop-color="#0C1C43"/>
<stop offset="1" stop-color="#1F3266"/>
</linearGradient>
<linearGradient id="paint24_linear_5832_4423" x1="22.8782" y1="47.2608" x2="18.9868" y2="38.5024" gradientUnits="userSpaceOnUse">
<stop stop-color="#0C1C43"/>
<stop offset="1" stop-color="#234AC1"/>
</linearGradient>
<linearGradient id="paint25_linear_5832_4423" x1="28.2949" y1="48.519" x2="23.6408" y2="32.7322" gradientUnits="userSpaceOnUse">
<stop stop-color="#0C1C43"/>
<stop offset="1" stop-color="#234AC1"/>
</linearGradient>
<linearGradient id="paint26_linear_5832_4423" x1="14.7757" y1="47.6678" x2="16.7444" y2="33.2786" gradientUnits="userSpaceOnUse">
<stop stop-color="#0C1C43"/>
<stop offset="1" stop-color="#234AC1"/>
</linearGradient>
<linearGradient id="paint27_linear_5832_4423" x1="43.037" y1="49.9083" x2="32.2427" y2="50.1621" gradientUnits="userSpaceOnUse">
<stop offset="0.19" stop-color="#F9E1D1"/>
<stop offset="0.57" stop-color="#F4CEC7"/>
</linearGradient>
<linearGradient id="paint28_linear_5832_4423" x1="41.7935" y1="40.1311" x2="32.8786" y2="60.7485" gradientUnits="userSpaceOnUse">
<stop stop-color="white"/>
<stop offset="0.98" stop-color="#CFE1F6"/>
</linearGradient>
<linearGradient id="paint29_linear_5832_4423" x1="61.2222" y1="33.3177" x2="35.0555" y2="61.1244" gradientUnits="userSpaceOnUse">
<stop offset="0.00261381" stop-color="#F9E1D1"/>
<stop offset="1" stop-color="#F4CEC7"/>
</linearGradient>
<linearGradient id="paint30_linear_5832_4423" x1="4.8915" y1="40.8628" x2="-2.34876" y2="58.2679" gradientUnits="userSpaceOnUse">
<stop stop-color="white"/>
<stop offset="0.98" stop-color="#CFE1F6"/>
</linearGradient>
<linearGradient id="paint31_linear_5832_4423" x1="40.3861" y1="68.8828" x2="4.13645" y2="60.9284" gradientUnits="userSpaceOnUse">
<stop stop-color="white"/>
<stop offset="0.98" stop-color="#F7FAFF"/>
</linearGradient>
<linearGradient id="paint32_linear_5832_4423" x1="20.1092" y1="51.2536" x2="33.4934" y2="50.4178" gradientUnits="userSpaceOnUse">
<stop stop-color="#E0EDFC"/>
<stop offset="0.98" stop-color="#DEEBFA"/>
</linearGradient>
<linearGradient id="paint33_linear_5832_4423" x1="4.85426" y1="53.5784" x2="16.0834" y2="53.0266" gradientUnits="userSpaceOnUse">
<stop stop-color="#E0EDFC"/>
<stop offset="0.98" stop-color="#DEEBFA"/>
</linearGradient>
<linearGradient id="paint34_linear_5832_4423" x1="20.1369" y1="50.3803" x2="32.895" y2="49.5866" gradientUnits="userSpaceOnUse">
<stop stop-color="#F1F7FC"/>
<stop offset="0.98" stop-color="#F7F9FC"/>
</linearGradient>
<linearGradient id="paint35_linear_5832_4423" x1="5.68211" y1="52.1257" x2="16.1363" y2="51.6117" gradientUnits="userSpaceOnUse">
<stop stop-color="#F1F7FC"/>
<stop offset="0.98" stop-color="#F7F9FC"/>
</linearGradient>
<linearGradient id="paint36_linear_5832_4423" x1="4.84436" y1="68.989" x2="14.5876" y2="44.8745" gradientUnits="userSpaceOnUse">
<stop stop-color="#2749AC"/>
<stop offset="1" stop-color="#5371CF"/>
</linearGradient>
<linearGradient id="paint37_linear_5832_4423" x1="7.90332" y1="53.5273" x2="28.2744" y2="53.5273" gradientUnits="userSpaceOnUse">
<stop stop-color="#B3C2F4"/>
<stop offset="1" stop-color="#5970C8"/>
</linearGradient>
<linearGradient id="paint38_linear_5832_4423" x1="3.75534" y1="40.736" x2="2.03195" y2="48.0048" gradientUnits="userSpaceOnUse">
<stop stop-color="#B0C4F9"/>
<stop offset="1" stop-color="#5371CF"/>
</linearGradient>
</defs>
</svg>
