<svg width="216" height="216" viewBox="0 0 216 216" fill="none" xmlns="http://www.w3.org/2000/svg">
<rect width="216" height="216" rx="8" fill="#F6F7F9"/>
<g opacity="0.5">
<path fill-rule="evenodd" clip-rule="evenodd" d="M140.106 118.651H140.589C140.907 118.651 141.192 118.608 141.192 118.233C141.192 117.901 140.877 117.849 140.593 117.849H140.106V118.651ZM139.559 117.47H140.653C141.355 117.47 141.741 117.703 141.741 118.294C141.741 118.771 141.451 119.003 140.971 119.045L141.758 120.269H141.2L140.44 119.064H140.107V120.269H139.559V117.47ZM142.523 118.875C142.523 117.721 141.644 116.884 140.559 116.884C139.473 116.884 138.597 117.721 138.597 118.875C138.597 120.034 139.473 120.87 140.559 120.87C141.644 120.87 142.523 120.034 142.523 118.875ZM137.963 118.869C137.963 117.51 139.128 116.402 140.56 116.402C141.991 116.402 143.154 117.51 143.154 118.869C143.154 120.234 141.991 121.342 140.56 121.342C139.128 121.342 137.963 120.234 137.963 118.869Z" fill="#4A4F63"/>
<path fill-rule="evenodd" clip-rule="evenodd" d="M86.4552 94.6833C82.5739 94.6833 79.286 97.0847 78.133 100.409C78.1052 100.483 78.0801 100.56 78.0568 100.634L77.8658 101.349L73 121.407H85.2583C88.9209 121.407 92.0392 119.199 93.2254 116.104L93.6881 114.193L98.4212 94.6833H86.4552Z" fill="#4A4F63"/>
<path fill-rule="evenodd" clip-rule="evenodd" d="M109.576 88C105.568 88 102.187 90.5634 101.145 94.0604C101.066 94.3224 101.002 94.5887 100.952 94.86L92.8906 128.09H104.857C108.956 128.09 112.397 125.408 113.354 121.787V121.789H113.359L121.555 88H109.576Z" fill="#728091"/>
<path fill-rule="evenodd" clip-rule="evenodd" d="M129.479 94.6833C125.734 94.6833 122.541 96.9183 121.285 100.064C121.222 100.223 120.999 100.888 120.999 100.888L116.022 121.407H127.99C132.103 121.407 135.551 118.712 136.497 115.075L136.496 115.077H136.497L141.442 94.6833H129.479Z" fill="#A9B2BE"/>
</g>
</svg>
