<svg width="289" height="162" viewBox="0 0 289 162" fill="none" xmlns="http://www.w3.org/2000/svg">
<rect width="289" height="162" rx="8" fill="#F6F7F9"/>
<g opacity="0.5">
<path fill-rule="evenodd" clip-rule="evenodd" d="M176.106 91.6511H176.589C176.907 91.6511 177.192 91.6076 177.192 91.2329C177.192 90.901 176.877 90.8489 176.593 90.8489H176.106V91.6511ZM175.559 90.47H176.653C177.355 90.47 177.741 90.703 177.741 91.2935C177.741 91.7714 177.451 92.0035 176.971 92.0453L177.758 93.269H177.2L176.44 92.0641H176.107V93.269H175.559V90.47ZM178.523 91.8751C178.523 90.7214 177.644 89.8843 176.559 89.8843C175.473 89.8843 174.597 90.7214 174.597 91.8751C174.597 93.034 175.473 93.8702 176.559 93.8702C177.644 93.8702 178.523 93.034 178.523 91.8751ZM173.963 91.8691C173.963 90.5097 175.128 89.4021 176.56 89.4021C177.991 89.4021 179.154 90.5097 179.154 91.8691C179.154 93.2336 177.991 94.3421 176.56 94.3421C175.128 94.3421 173.963 93.2336 173.963 91.8691Z" fill="#4A4F63"/>
<path fill-rule="evenodd" clip-rule="evenodd" d="M122.455 67.6833C118.574 67.6833 115.286 70.0847 114.133 73.4093C114.105 73.4827 114.08 73.5603 114.057 73.6337L113.866 74.3488L109 94.4066H121.258C124.921 94.4066 128.039 92.199 129.225 89.1039L129.688 87.1933L134.421 67.6833H122.455Z" fill="#4A4F63"/>
<path fill-rule="evenodd" clip-rule="evenodd" d="M145.576 61C141.568 61 138.187 63.5634 137.145 67.0604C137.066 67.3224 137.002 67.5887 136.952 67.86L128.891 101.09H140.857C144.956 101.09 148.397 98.4079 149.354 94.7872V94.7889H149.359L157.555 61H145.576Z" fill="#728091"/>
<path fill-rule="evenodd" clip-rule="evenodd" d="M165.479 67.6833C161.734 67.6833 158.541 69.9183 157.285 73.0637C157.222 73.2232 156.999 73.888 156.999 73.888L152.022 94.4066H163.99C168.103 94.4066 171.551 91.7117 172.497 88.0748L172.496 88.0765H172.497L177.442 67.6833H165.479Z" fill="#A9B2BE"/>
</g>
</svg>
