<svg width="34" height="34" viewBox="0 0 34 34" fill="none" xmlns="http://www.w3.org/2000/svg">
<g clip-path="url(#clip0_310_1120)">
<path d="M28.39 12.3392V5.66671H21.7316L17 0.977539L12.3391 5.66671H5.66664V12.3392L0.977478 17L5.66664 21.7317V28.39H12.3391L17 33.0792L21.7316 28.39H28.39V21.7317L33.0791 17L28.39 12.3392ZM12.5091 9.98754C13.8975 9.98754 15.0166 11.1067 15.0166 12.5092C15.0166 13.1742 14.7525 13.812 14.2822 14.2823C13.812 14.7525 13.1742 15.0167 12.5091 15.0167C11.1066 15.0167 9.98748 13.8975 9.98748 12.5092C9.98748 11.1067 11.1066 9.98754 12.5091 9.98754ZM21.5616 24.0834C20.1733 24.0834 19.0541 22.95 19.0541 21.5617C19.0541 20.8967 19.3183 20.2589 19.7886 19.7886C20.2588 19.3184 20.8966 19.0542 21.5616 19.0542C22.95 19.0542 24.0833 20.1734 24.0833 21.5617C24.0833 22.2305 23.8176 22.8719 23.3447 23.3448C22.8718 23.8177 22.2304 24.0834 21.5616 24.0834ZM12.0416 24.1259L9.91664 22.0009L22.0008 9.91671L24.1258 12.0417L12.0416 24.1259Z" fill="#F37021"/>
</g>
<defs>
<clipPath id="clip0_310_1120">
<rect width="34" height="34" fill="white"/>
</clipPath>
</defs>
</svg>
